<svg width="1000" height="837" viewBox="0 0 1000 837" fill="none" xmlns="http://www.w3.org/2000/svg">
<line x1="52.7507" y1="584.726" x2="972.73" y2="55.5666" stroke="url(#paint0_linear)" stroke-opacity="0.2"/>
<line x1="41.7511" y1="696.907" x2="1033.51" y2="127.566" stroke="url(#paint1_linear)" stroke-opacity="0.2"/>
<line x1="22.7513" y1="816.204" x2="1009.28" y2="250.566" stroke="url(#paint2_linear)" stroke-opacity="0.2"/>
<line x1="169.751" y1="843.204" x2="1156.28" y2="277.566" stroke="url(#paint3_linear)" stroke-opacity="0.2"/>
<line x1="286.751" y1="886.204" x2="1273.28" y2="320.566" stroke="url(#paint4_linear)" stroke-opacity="0.15"/>
<line x1="992.825" y1="973.131" x2="4.74828" y2="397.432" stroke="url(#paint5_linear)" stroke-opacity="0.15"/>
<line x1="1014.53" y1="884.136" x2="25.753" y2="322.435" stroke="url(#paint6_linear)" stroke-opacity="0.2"/>
<line x1="1013.53" y1="788.136" x2="24.753" y2="226.435" stroke="url(#paint7_linear)" stroke-opacity="0.2"/>
<line x1="989.53" y1="685.136" x2="0.752972" y2="123.435" stroke="url(#paint8_linear)" stroke-opacity="0.2"/>
<line x1="1053.53" y1="627.136" x2="64.7529" y2="65.4347" stroke="url(#paint9_linear)" stroke-opacity="0.2"/>
<line x1="1004.4" y1="502.138" x2="163.757" y2="33.4367" stroke="url(#paint10_linear)" stroke-opacity="0.15"/>
<path d="M375.127 617.092C378.11 617.092 380.527 615.659 380.527 613.892C380.527 612.124 378.11 610.692 375.127 610.692C372.145 610.692 369.727 612.124 369.727 613.892C369.727 615.659 372.145 617.092 375.127 617.092Z" fill="#B8BFFE"/>
<path d="M282.366 561.6C285.348 561.6 287.766 560.167 287.766 558.4C287.766 556.633 285.348 555.2 282.366 555.2C279.384 555.2 276.966 556.633 276.966 558.4C276.966 560.167 279.384 561.6 282.366 561.6Z" fill="#B8BFFE"/>
<path d="M190.4 508.4C193.382 508.4 195.8 506.967 195.8 505.2C195.8 503.433 193.382 502 190.4 502C187.418 502 185 503.433 185 505.2C185 506.967 187.418 508.4 190.4 508.4Z" fill="#B8BFFE"/>
<path d="M471.373 672.184C474.355 672.184 476.773 670.752 476.773 668.984C476.773 667.217 474.355 665.784 471.373 665.784C468.391 665.784 465.973 667.217 465.973 668.984C465.973 670.752 468.391 672.184 471.373 672.184Z" fill="#B8BFFE"/>
<path d="M567.127 727.092C570.11 727.092 572.527 725.659 572.527 723.892C572.527 722.124 570.11 720.692 567.127 720.692C564.145 720.692 561.727 722.124 561.727 723.892C561.727 725.659 564.145 727.092 567.127 727.092Z" fill="#B8BFFE"/>
<path d="M653.4 679.4C656.382 679.4 658.8 677.967 658.8 676.2C658.8 674.433 656.382 673 653.4 673C650.418 673 648 674.433 648 676.2C648 677.967 650.418 679.4 653.4 679.4Z" fill="#B8BFFE"/>
<path d="M735.4 631.4C738.382 631.4 740.8 629.967 740.8 628.2C740.8 626.433 738.382 625 735.4 625C732.418 625 730 626.433 730 628.2C730 629.967 732.418 631.4 735.4 631.4Z" fill="#B8BFFE"/>
<path d="M813.4 587.4C816.382 587.4 818.8 585.967 818.8 584.2C818.8 582.433 816.382 581 813.4 581C810.418 581 808 582.433 808 584.2C808 585.967 810.418 587.4 813.4 587.4Z" fill="#B8BFFE"/>
<path d="M895.4 540.4C898.382 540.4 900.8 538.967 900.8 537.2C900.8 535.433 898.382 534 895.4 534C892.418 534 890 535.433 890 537.2C890 538.967 892.418 540.4 895.4 540.4Z" fill="#B8BFFE"/>
<path d="M469.483 16L857.483 254.55V494L469.483 266V16Z" fill="#25A2FF"/>
<path d="M868 246L851.5 255V497L868 487.5V246Z" fill="#52B5FF"/>
<path d="M868.5 246L851.5 255.5L469.5 35V16L868.5 246Z" fill="#52B4FE"/>
<path d="M183.483 428V196.123L469.483 32V259.852L183.483 428Z" fill="#67C8FF"/>
<path d="M469 15.5V35L183.5 197.5V444L169 435L169.5 189L469 15.5Z" fill="#57C1FD"/>
<path d="M564.866 642.902L852.875 476.99L469.483 258L183 425L564.866 642.902Z" fill="#1092F3"/>
<path d="M564.5 661.5V642L183 424V444.5L564.5 661.5Z" fill="#0087EB"/>
<path d="M852 496.5V476.5L564.5 642V661.5L852 496.5Z" fill="#0087EB"/>
<path d="M604.758 143.3V335.5L532 295V103L604.758 143.3Z" fill="url(#paint11_linear)"/>
<line x1="620.5" y1="231.005" x2="620.5" y2="134" stroke="white" stroke-opacity="0.3"/>
<line x1="620.755" y1="134.436" x2="469.755" y2="49.4357" stroke="white" stroke-opacity="0.3"/>
<line x1="444.792" y1="63.6758" x2="428.676" y2="72.2079" stroke="white" stroke-opacity="0.3" stroke-linecap="round"/>
<path d="M608.955 201.412L608.477 201.882C613.409 221.961 622.891 262.588 625.182 262.588C627.473 262.588 629 260.863 629 260.235V211.294C629 209.035 628.205 208.314 627.568 208C623.591 205.804 614.205 200.941 613.25 200.471C612.823 200.26 609.432 201.255 608.955 201.412Z" fill="url(#paint12_linear)"/>
<path d="M608 203.327C608 201.818 609.606 200.853 610.938 201.56L626.029 209.575C626.682 209.922 627.091 210.601 627.091 211.341V260.575C627.091 262.106 625.441 263.069 624.108 262.317L609.017 253.802C608.389 253.447 608 252.781 608 252.06V203.327Z" fill="url(#paint13_linear)"/>
<path d="M610.864 237.493C610.864 236.724 611.696 236.243 612.362 236.627L621.817 242.065C622.127 242.243 622.318 242.574 622.318 242.931V251.448C622.318 252.217 621.486 252.698 620.82 252.315L611.365 246.877C611.055 246.698 610.864 246.368 610.864 246.01V237.493Z" fill="#34485B"/>
<path d="M612.09 240.056C612.077 239.282 612.909 238.787 613.583 239.169L620.241 242.939C620.549 243.113 620.742 243.438 620.749 243.792L620.835 248.642C620.848 249.416 620.016 249.911 619.342 249.529L612.684 245.759C612.376 245.585 612.182 245.26 612.176 244.906L612.09 240.056Z" fill="#27CF8C"/>
<path d="M609.909 210.175C609.909 209.411 610.73 208.929 611.397 209.302L623.715 216.184C624.031 216.361 624.227 216.695 624.227 217.057V239.237C624.227 240.001 623.406 240.482 622.739 240.11L610.421 233.227C610.105 233.051 609.909 232.717 609.909 232.354V210.175Z" fill="#34485B"/>
<path d="M614 207L620.291 210.427" stroke="#435B74" stroke-linecap="round"/>
<path d="M494.81 52.4026L445.021 52.4026C445.021 52.4026 444.219 84.1455 470.719 84.3107C495.613 84.4658 494.81 52.4026 494.81 52.4026Z" fill="white"/>
<path d="M445.003 63.8394V52.4174H494.759V63.8394C483.321 72.4059 455.869 71.8348 445.003 63.8394Z" fill="#F7F7F7"/>
<ellipse cx="469.916" cy="52.4072" rx="24.8946" ry="10.3686" fill="#EFEFEF"/>
<path d="M488.386 75.5372C482.497 73.942 467.185 74.2611 459.476 81.9179C465.901 85.9058 482.765 85.9059 488.386 75.5372Z" fill="url(#paint14_linear)"/>
<path d="M476.893 79.5251C476.893 80.707 475.928 81.6679 474.734 81.6679C473.54 81.6679 472.575 80.707 472.575 79.5251C472.575 78.3433 473.54 77.3824 474.734 77.3824C475.928 77.3824 476.893 78.3433 476.893 79.5251Z" stroke="white" stroke-width="0.5"/>
<path d="M565.417 418.888C565.417 418.888 564.499 418.888 564.193 421.626C563.887 424.363 562.662 426.492 564.499 427.709C566.335 428.926 571.232 430.142 573.374 429.534C575.516 428.926 576.74 428.317 577.352 428.013C577.964 427.709 592.042 420.409 592.042 420.409C592.042 420.409 592.96 418.888 592.654 417.976C591.736 415.542 589.594 415.238 588.982 414.934C588.37 414.63 581.025 415.542 579.189 415.542C577.352 415.846 571.232 414.326 571.232 414.326L565.417 418.888Z" fill="#0B1226"/>
<mask id="mask0" mask-type="alpha" maskUnits="userSpaceOnUse" x="563" y="417" width="31" height="13">
<path d="M563.581 424.667C563.581 424.971 563.887 425.58 564.499 426.188C565.723 427.709 570.313 428.317 572.15 428.013C573.986 428.013 573.374 426.492 575.21 425.58C577.046 424.667 578.883 425.276 579.495 425.276C580.107 425.276 590.818 419.496 591.43 419.192C592.042 418.584 592.348 417.367 592.348 417.367C592.654 417.671 592.654 417.976 592.96 418.28C593.267 419.192 592.348 420.713 592.348 420.713C592.348 420.713 578.271 428.013 577.658 428.317C577.046 428.622 575.822 429.23 573.68 429.838C571.538 430.447 566.641 429.23 564.805 428.013C563.274 427.101 563.274 425.884 563.581 424.667Z" fill="url(#paint15_linear)"/>
</mask>
<g mask="url(#mask0)">
<path d="M563.581 424.667C563.581 424.971 563.887 425.58 564.499 426.188C565.723 427.709 570.313 428.317 572.15 428.013C573.986 428.013 573.374 426.492 575.21 425.58C577.046 424.667 578.883 425.276 579.495 425.276C580.107 425.276 590.818 419.496 591.43 419.192C592.042 418.584 592.348 417.367 592.348 417.367C592.654 417.671 592.654 417.976 592.96 418.28C593.267 419.192 592.348 420.713 592.348 420.713C592.348 420.713 578.271 428.013 577.658 428.317C577.046 428.622 575.822 429.23 573.68 429.838C571.538 430.447 566.641 429.23 564.805 428.013C563.274 427.101 563.274 425.884 563.581 424.667Z" fill="url(#paint16_linear)"/>
</g>
<path d="M538.791 410.067C538.791 410.067 537.873 410.067 537.567 412.805C537.261 415.542 536.037 417.671 537.873 418.888C539.709 420.105 544.606 421.321 546.748 420.713C548.585 420.105 549.809 419.192 550.421 419.192C551.033 418.888 565.111 411.588 565.111 411.588C565.111 411.588 566.029 410.067 565.723 409.155C564.805 406.721 562.662 406.417 562.05 406.113C561.438 405.809 554.093 406.721 552.257 406.721C550.421 407.025 544.3 405.505 544.3 405.505L538.791 410.067Z" fill="#0B1226"/>
<mask id="mask1" mask-type="alpha" maskUnits="userSpaceOnUse" x="536" y="408" width="31" height="13">
<path d="M536.955 415.542C536.955 415.846 537.261 416.455 537.873 417.063C539.097 418.584 543.688 419.192 545.524 418.888C547.36 418.888 546.748 417.367 548.585 416.455C550.421 415.542 552.257 416.151 552.869 416.151C553.481 416.151 564.193 410.371 564.805 410.067C565.417 409.459 565.723 408.242 565.723 408.242C566.029 408.546 566.029 408.851 566.335 409.155C566.641 410.067 565.723 411.588 565.723 411.588C565.723 411.588 551.645 418.888 551.033 419.192C549.809 419.192 548.585 420.105 546.748 420.713C544.606 421.321 539.709 420.105 537.873 418.888C536.649 417.976 536.649 417.063 536.955 415.542Z" fill="url(#paint17_linear)"/>
</mask>
<g mask="url(#mask1)">
<path d="M536.955 415.542C536.955 415.846 537.261 416.455 537.873 417.063C539.097 418.584 543.688 419.192 545.524 418.888C547.36 418.888 546.748 417.367 548.585 416.455C550.421 415.542 552.257 416.151 552.869 416.151C553.481 416.151 564.193 410.371 564.805 410.067C565.417 409.459 565.723 408.242 565.723 408.242C566.029 408.546 566.029 408.851 566.335 409.155C566.641 410.067 565.723 411.588 565.723 411.588C565.723 411.588 551.645 418.888 551.033 419.192C549.809 419.192 548.585 420.105 546.748 420.713C544.606 421.321 539.709 420.105 537.873 418.888C536.649 417.976 536.649 417.063 536.955 415.542Z" fill="url(#paint18_linear)"/>
</g>
<path d="M534.813 317.6C534.813 317.6 534.507 351.971 534.813 358.358C535.119 365.05 536.649 381.475 536.649 393.034C536.649 404.592 536.343 408.546 538.791 410.371C540.934 411.892 551.339 410.067 552.563 408.242C553.787 406.417 552.869 379.65 553.787 374.479C554.399 369.308 557.766 349.233 557.766 349.233L556.236 325.204L534.813 317.6Z" fill="#323643"/>
<path d="M578.27 326.421C578.27 326.421 583.167 364.442 582.861 373.567C582.555 382.388 580.413 412.805 579.495 415.542C578.883 417.976 577.964 419.496 574.598 420.105C571.232 420.713 568.477 420.713 566.335 420.105C564.193 419.496 562.968 417.671 563.274 415.238C563.581 412.805 566.029 381.779 565.417 376.913C564.805 372.046 555.317 350.45 554.093 342.542C552.869 334.633 552.563 324.9 552.563 324.9L578.27 326.421Z" fill="#323643"/>
<path d="M580.413 341.933C580.413 341.933 576.434 341.021 574.292 338.283C572.456 335.546 570.007 330.071 570.007 330.071L578.271 326.421L580.413 341.933Z" fill="black"/>
<path d="M535.425 246.728C535.425 246.728 524.101 269.845 522.265 275.016C520.429 279.883 520.735 282.012 522.265 284.445C524.101 286.879 533.895 301.479 533.895 301.479L545.218 287.487L548.278 264.674L542.77 249.77L535.425 246.728Z" fill="#0A76C6"/>
<path d="M588.676 280.795C588.676 280.795 585.922 269.237 583.473 262.545C581.025 255.853 579.189 254.637 576.434 252.812C573.986 250.987 570.926 248.553 570.926 248.553L546.442 242.774C546.442 242.774 537.567 243.382 535.425 246.728C532.364 252.203 530.528 311.516 532.058 315.775C533.282 319.729 540.627 325.812 553.175 329.158C565.723 332.2 578.27 330.679 581.025 328.55C583.779 326.725 584.391 305.433 582.861 295.395C581.331 285.358 588.676 280.795 588.676 280.795Z" fill="#0066B2"/>
<path d="M567.559 247.032C567.559 247.032 566.641 244.295 566.335 240.037C566.029 235.778 567.253 229.695 567.253 229.695L552.869 227.566C552.869 227.566 554.399 230.303 554.093 235.474C553.787 240.645 550.115 244.295 550.115 244.295C550.115 244.295 557.766 249.466 559.908 249.77C561.744 250.074 566.335 249.77 566.335 249.77L567.559 247.032Z" fill="#FFCCB0"/>
<path d="M571.844 217.528C571.844 217.528 575.516 222.091 574.904 228.478C574.598 234.866 571.844 239.124 570.007 239.732C568.171 240.037 562.662 238.82 560.214 236.386C557.766 233.649 555.011 223.307 555.011 223.307L568.171 212.053L571.844 217.528Z" fill="#FFCCB0"/>
<path d="M571.232 209.62C573.68 211.14 576.434 213.878 576.434 216.615C576.434 219.353 573.68 222.091 573.68 222.091C573.68 222.091 571.538 218.745 568.171 217.224C565.417 216.007 565.111 218.44 565.111 218.44L558.99 210.836C558.99 210.836 566.029 206.274 571.232 209.62Z" fill="#323643"/>
<path d="M564.499 210.532L567.559 209.011C567.559 209.011 562.05 206.274 557.154 207.186C552.257 208.099 550.727 212.053 550.727 212.053C550.727 212.053 546.748 215.095 546.442 219.961C546.136 224.828 547.972 228.782 551.033 230.607C554.093 232.432 554.705 233.649 559.296 232.736C562.662 231.824 566.029 227.566 565.417 224.524C564.805 221.482 566.947 222.699 568.477 220.266C570.007 217.832 570.007 214.486 568.477 212.357C566.641 209.924 564.499 210.532 564.499 210.532Z" fill="#323643"/>
<path d="M572.15 248.553C570.926 247.032 569.701 245.816 568.783 245.207C568.171 244.599 567.559 244.599 566.947 244.903C565.417 245.512 562.968 246.12 560.214 245.512C556.236 244.599 553.787 243.382 552.257 240.949C550.727 238.516 545.83 241.253 546.136 242.774C546.442 244.295 548.278 247.945 553.787 250.074C559.602 252.203 564.499 251.899 567.865 251.291C569.395 250.987 570.619 250.682 571.538 250.378C572.456 250.378 572.762 249.162 572.15 248.553Z" fill="#1C71C6"/>
<path d="M608.569 269.237L611.629 264.066C611.629 264.066 614.995 264.37 615.914 262.849C616.832 261.024 618.668 258.591 617.75 256.462C617.138 254.332 614.689 252.812 614.689 252.812C614.689 252.812 618.056 245.512 617.75 244.599C617.444 243.687 616.526 243.687 615.914 243.991C615.301 244.295 611.323 250.987 611.323 250.987C611.323 250.987 609.793 251.595 608.263 255.853C606.732 259.808 606.732 260.416 606.732 260.416L604.59 263.762L608.569 269.237Z" fill="#FCBF9D"/>
<path d="M608.263 273.191L610.405 270.149L604.59 262.849L602.142 266.803L608.263 273.191Z" fill="#080714"/>
<path d="M608.569 271.974C609.181 272.583 609.181 273.799 608.569 274.408C605.508 279.883 592.96 300.262 588.37 301.175C585.003 302.087 577.964 291.745 573.986 281.708C570.007 271.67 568.171 265.283 569.395 260.416C570.619 255.549 574.904 251.291 577.658 253.42C580.413 255.549 583.779 259.199 586.228 270.149C588.676 281.404 588.676 281.404 588.676 281.404C588.676 281.404 598.163 268.324 599.999 266.195C600.611 265.587 600.918 265.283 601.224 264.978C601.836 264.37 602.754 264.674 603.366 265.283L608.569 271.974Z" fill="#0F83DA"/>
<path d="M610.405 270.149L611.017 269.237C611.323 268.933 611.323 268.324 611.017 267.716L606.426 261.633C606.12 261.328 605.508 261.328 605.202 261.633L604.59 262.849L610.405 270.149Z" fill="#F5E6FF"/>
<path d="M562.356 245.512C562.05 245.512 561.744 245.512 561.744 245.207C563.887 245.207 565.723 244.903 566.947 244.599C567.559 244.295 568.477 244.599 568.783 244.903C569.701 245.816 570.926 247.032 572.15 248.249C572.762 248.857 572.456 249.77 571.844 250.074C571.232 249.77 566.335 246.12 562.356 245.512Z" fill="#FFE9F4"/>
<g filter="url(#filter0_d)">
<path d="M144 419V187.123L430 26.5V250.852L144 419Z" fill="#F7F8FC"/>
</g>
<path d="M205.564 175.176V151.299L430 26.5V48L205.564 175.176Z" fill="white"/>
<path d="M212 162.623V157.423L251 135V140.123L212 162.623Z" fill="#D2EFFD"/>
<path d="M425.675 37.5092C424.774 35.8534 422.972 35.6561 421.618 37.0229C420.19 38.3932 419.784 40.8473 420.681 42.4466C421.582 44.1024 423.386 44.3562 424.815 42.9859C426.169 41.6191 426.575 39.165 425.675 37.5092Z" fill="#D2EFFD"/>
<path d="M417.675 42.5092C416.774 40.8534 414.972 40.6561 413.618 42.0229C412.19 43.3932 411.784 45.8473 412.681 47.4466C413.582 49.1024 415.386 49.3562 416.815 47.9859C418.169 46.6191 418.575 44.165 417.675 42.5092Z" fill="#D2EFFD"/>
<path d="M408.675 47.5092C407.774 45.8534 405.972 45.6561 404.618 47.0229C403.19 48.3932 402.784 50.8473 403.681 52.4466C404.582 54.1024 406.386 54.3562 407.815 52.9859C409.169 51.6191 409.575 49.165 408.675 47.5092Z" fill="#D2EFFD"/>
<path d="M144 419V187.123L205.5 151.5V382.5L144 419Z" fill="#002E5B"/>
<path d="M150 199.5V194.299L189 171.877V177L150 199.5Z" fill="#336BA4"/>
<path d="M160 217.62V212.985L194.76 193V197.566L160 217.62Z" fill="#336BA4"/>
<path d="M161 236.62V231.985L195.76 212V216.566L161 236.62Z" fill="#336BA4"/>
<path d="M154.756 216.84C154.156 215.736 152.955 215.605 152.052 216.516C151.1 217.43 150.829 219.066 151.428 220.132C152.028 221.236 153.231 221.405 154.183 220.491C155.086 219.58 155.357 217.944 154.756 216.84Z" fill="#336BA4"/>
<path d="M199.675 167.509C198.774 165.853 196.972 165.656 195.618 167.023C194.19 168.393 193.784 170.847 194.681 172.447C195.582 174.102 197.386 174.356 198.815 172.986C200.169 171.619 200.575 169.165 199.675 167.509Z" fill="#336BA4"/>
<path d="M161 253.62V248.985L195.76 229V233.566L161 253.62Z" fill="#336BA4"/>
<path d="M154.766 252.833C154.135 251.746 152.93 251.649 152.054 252.586C151.128 253.526 150.904 255.169 151.533 256.218C152.164 257.304 153.372 257.439 154.298 256.499C155.174 255.562 155.398 253.919 154.766 252.833Z" fill="#336BA4"/>
<path d="M161 270.62V265.985L195.76 246V250.566L161 270.62Z" fill="#336BA4"/>
<path d="M154.766 269.833C154.135 268.746 152.93 268.649 152.054 269.586C151.128 270.526 150.904 272.169 151.533 273.218C152.164 274.304 153.372 274.439 154.298 273.499C155.174 272.562 155.398 270.919 154.766 269.833Z" fill="#336BA4"/>
<path d="M161 287.62V282.985L195.76 263V267.566L161 287.62Z" fill="#336BA4"/>
<path d="M154.766 286.833C154.135 285.746 152.93 285.649 152.054 286.586C151.128 287.526 150.904 289.169 151.533 290.218C152.164 291.304 153.372 291.439 154.298 290.499C155.174 289.562 155.398 287.919 154.766 286.833Z" fill="#336BA4"/>
<path d="M161 304.62V299.985L195.76 280V284.566L161 304.62Z" fill="#336BA4"/>
<path d="M154.766 303.833C154.135 302.746 152.93 302.649 152.054 303.586C151.128 304.526 150.904 306.169 151.533 307.218C152.164 308.304 153.372 308.439 154.298 307.499C155.174 306.562 155.398 304.919 154.766 303.833Z" fill="#336BA4"/>
<path d="M154.766 234.833C154.135 233.746 152.93 233.649 152.054 234.586C151.128 235.526 150.904 237.169 151.533 238.218C152.164 239.304 153.372 239.439 154.298 238.499C155.174 237.562 155.398 235.919 154.766 234.833Z" fill="#336BA4"/>
<g filter="url(#filter1_d)">
<path d="M369 216.885V141.491L437 101.982V178.5L369 216.885Z" fill="white"/>
</g>
<path d="M375 205.62V204.427L432 172.442V173.566L375 205.62Z" fill="#D2EFFD"/>
<path d="M375 202.857V152.679L387 146V196.109L375 202.857Z" fill="#91D0FF"/>
<path d="M390 193.857V164.679L402 158V187.109L390 193.857Z" fill="#C2FBFF"/>
<path d="M405 185.857V151.179L417 144.5V179.108L405 185.857Z" fill="#CED3FF"/>
<path d="M420 177.357V151L432 144.321V170.608L420 177.357Z" fill="#E3FFC0"/>
<g filter="url(#filter2_d)">
<path d="M212 387.176V231.299L365 143.809V300.809L212 387.176Z" fill="white"/>
</g>
<path d="M230.91 237.635C229.337 234.744 226.19 234.399 223.826 236.786C221.331 239.179 220.622 243.465 222.19 246.258C223.762 249.149 226.914 249.593 229.409 247.199C231.773 244.813 232.482 240.527 230.91 237.635Z" fill="#A8E4FF"/>
<path d="M237 238.62V233.985L271.76 214V218.566L237 238.62Z" fill="#D2EFFD"/>
<path d="M230.91 261.635C229.337 258.744 226.19 258.399 223.826 260.786C221.331 263.179 220.622 267.465 222.19 270.258C223.762 273.149 226.914 273.593 229.409 271.199C231.773 268.813 232.482 264.527 230.91 261.635Z" fill="#A8E4FF"/>
<path d="M237 263.62V258.985L271.76 239V243.566L237 263.62Z" fill="#D2EFFD"/>
<path d="M230.91 284.635C229.337 281.744 226.19 281.399 223.826 283.786C221.331 286.179 220.622 290.465 222.19 293.258C223.762 296.149 226.914 296.593 229.409 294.199C231.773 291.813 232.482 287.527 230.91 284.635Z" fill="#A8E4FF"/>
<path d="M237 285.62V280.985L271.76 261V265.566L237 285.62Z" fill="#D2EFFD"/>
<path d="M230.91 307.635C229.337 304.744 226.19 304.399 223.826 306.786C221.331 309.179 220.622 313.465 222.19 316.258C223.762 319.149 226.914 319.593 229.409 317.199C231.773 314.813 232.482 310.527 230.91 307.635Z" fill="#A8E4FF"/>
<path d="M237 309.62V304.985L271.76 285V289.566L237 309.62Z" fill="#D2EFFD"/>
<path d="M230.91 331.635C229.337 328.744 226.19 328.399 223.826 330.786C221.331 333.179 220.622 337.465 222.19 340.258C223.762 343.149 226.914 343.593 229.409 341.199C231.773 338.813 232.482 334.527 230.91 331.635Z" fill="#A8E4FF"/>
<path d="M237 333.62V328.985L271.76 309V313.566L237 333.62Z" fill="#D2EFFD"/>
<path d="M230.91 354.635C229.337 351.744 226.19 351.399 223.826 353.786C221.331 356.179 220.622 360.465 222.19 363.258C223.762 366.149 226.914 366.593 229.409 364.199C231.773 361.813 232.482 357.527 230.91 354.635Z" fill="#A8E4FF"/>
<path d="M237 355.62V350.985L271.76 331V335.566L237 355.62Z" fill="#D2EFFD"/>
<path d="M282 213.62V208.985L329.5 181.434V186L282 213.62Z" fill="#D2EFFD"/>
<path d="M282 238.186V233.551L329.5 206V210.566L282 238.186Z" fill="#D2EFFD"/>
<path d="M282 260.186V255.551L329.5 228V232.566L282 260.186Z" fill="#D2EFFD"/>
<path d="M282 284.186V279.551L329.5 252V256.566L282 284.186Z" fill="#D2EFFD"/>
<path d="M282 308.186V303.551L329.5 276V280.566L282 308.186Z" fill="#D2EFFD"/>
<path d="M282 330.186V325.551L329.5 298V302.566L282 330.186Z" fill="#D2EFFD"/>
<g filter="url(#filter3_d)">
<path d="M212 225.176V179.299L436.436 51V98L212 225.176Z" fill="white"/>
</g>
<path d="M218 216.247V184.247L281 148V179.5L218 216.247Z" fill="#F6FBFF"/>
<path d="M292 173.247V141.247L355 105V136.5L292 173.247Z" fill="#F4FFE5"/>
<path d="M366 131.247V99.2466L429 63V94.5L366 131.247Z" fill="#F4F5FF"/>
<path d="M233.91 189.635C232.337 186.744 229.19 186.399 226.826 188.786C224.331 191.179 223.622 195.465 225.19 198.258C226.762 201.149 229.914 201.593 232.409 199.199C234.773 196.813 235.482 192.527 233.91 189.635Z" fill="#A8E4FF"/>
<path d="M308.91 146.635C307.337 143.744 304.19 143.399 301.826 145.786C299.331 148.179 298.622 152.465 300.19 155.258C301.762 158.149 304.914 158.593 307.409 156.199C309.773 153.813 310.482 149.527 308.91 146.635Z" fill="#CFFF90"/>
<path d="M381.91 104.635C380.337 101.744 377.19 101.399 374.826 103.786C372.331 106.179 371.622 110.465 373.19 113.258C374.762 116.149 377.914 116.593 380.409 114.199C382.773 111.813 383.482 107.527 381.91 104.635Z" fill="#B8BFFE"/>
<path d="M240 190.62V185.985L274.76 166V170.566L240 190.62Z" fill="#D2EFFD"/>
<path d="M314 147.62V142.985L348.76 123V127.566L314 147.62Z" fill="#DAFFAA"/>
<path d="M389 104.62V99.9848L423.76 80V84.5663L389 104.62Z" fill="#D8DCFE"/>
<g filter="url(#filter4_d)">
<path d="M369 296.904V221.509L437 182V258.518L369 296.904Z" fill="white"/>
</g>
<path d="M380 255C375.2 255.8 373.333 263.333 373 267V286.5L432 253.5V219.5C431.5 221.333 429.4 225.4 425 227C419.5 229 421 248 413 251.5C405 255 399 236 391 238.5C383 241 386 254 380 255Z" fill="#ECF9FF"/>
<path d="M378.806 255.48C378.519 254.953 377.946 254.891 377.515 255.325C377.06 255.761 376.931 256.542 377.217 257.051C377.503 257.578 378.078 257.659 378.532 257.223C378.963 256.788 379.092 256.007 378.806 255.48Z" fill="#A8E4FF"/>
<path d="M391.806 237.48C391.519 236.953 390.946 236.891 390.515 237.325C390.06 237.761 389.931 238.542 390.217 239.051C390.503 239.578 391.078 239.659 391.532 239.223C391.963 238.788 392.092 238.007 391.806 237.48Z" fill="#A8E4FF"/>
<path d="M413.806 250.48C413.519 249.953 412.946 249.891 412.515 250.325C412.06 250.761 411.931 251.542 412.217 252.051C412.503 252.578 413.078 252.659 413.532 252.223C413.963 251.788 414.092 251.007 413.806 250.48Z" fill="#A8E4FF"/>
<path d="M424.806 226.48C424.519 225.953 423.946 225.891 423.515 226.325C423.06 226.761 422.931 227.542 423.217 228.051C423.503 228.578 424.078 228.659 424.532 228.223C424.963 227.788 425.092 227.007 424.806 226.48Z" fill="#A8E4FF"/>
<path d="M375 286.178V284.985L432 253V254.124L375 286.178Z" fill="#D2EFFD"/>
<path d="M454.7 274.792L457.7 289.429C457.7 293.013 463.1 296 469.7 296C476.3 296 481.7 293.013 481.7 289.429L484.7 274.792H454.7Z" fill="#1F2129"/>
<path d="M486.5 262.545H478.7C476 261.649 473 261.052 469.7 261.052C465.8 261.052 462.5 261.649 459.5 262.844H452.9V270.013C452.9 275.091 460.4 279.273 469.7 279.273C479 279.273 486.5 275.091 486.5 270.013V262.545Z" fill="#323643"/>
<path d="M469.4 272.403C478.678 272.403 486.2 268.257 486.2 263.143C486.2 258.029 478.678 253.883 469.4 253.883C460.122 253.883 452.6 258.029 452.6 263.143C452.6 268.257 460.122 272.403 469.4 272.403Z" fill="#27CF8C"/>
<path d="M469.4 261.052C476.3 261.052 482.3 263.442 485 266.727C485.9 265.532 486.2 264.338 486.2 263.143C486.2 258.065 478.7 253.883 469.4 253.883C460.1 253.883 452.6 258.065 452.6 263.143C452.6 264.338 453.2 265.532 453.8 266.727C456.5 263.442 462.5 261.052 469.4 261.052Z" fill="#323643"/>
<path d="M469.4 253.883C460.1 253.883 452.6 258.065 452.6 263.143C452.6 268.221 460.1 272.403 469.4 272.403C478.7 272.403 486.2 268.221 486.2 263.143C486.2 258.065 479 253.883 469.4 253.883ZM469.4 270.61C462.2 270.61 456.2 267.325 456.2 263.442C456.2 259.26 462.2 256.273 469.4 256.273C476.6 256.273 482.6 259.558 482.6 263.442C482.9 267.325 476.9 270.61 469.4 270.61Z" fill="black"/>
<path d="M493.1 239.844L479.6 166.364C478.7 161.584 474.5 158 469.7 158C464.6 158 460.4 161.584 459.8 166.662L446.9 239.844C446.3 241.636 446 243.727 446 245.818C446 258.961 456.8 269.714 470 269.714C483.2 269.714 494 258.961 494 245.818C494 243.727 493.7 241.636 493.1 239.844Z" fill="#27CF8C"/>
<path d="M428.88 455.018C428.88 455.018 430.979 458.915 430.679 461.313C430.379 463.411 430.679 464.61 430.679 464.61L425.88 466.409L424.981 464.31L424.381 467.308C424.381 467.308 415.084 474.202 411.185 474.802C407.286 475.701 400.689 473.303 400.689 472.404C400.689 471.504 401.588 467.907 403.988 466.109C406.387 464.011 413.884 455.018 413.884 455.018H428.88Z" fill="black"/>
<path d="M413.584 458.615L417.483 459.514C417.783 459.514 418.383 459.514 418.383 458.915C418.383 458.615 418.383 458.016 417.783 458.016L413.884 457.116C413.584 457.116 412.985 457.116 412.985 457.716C412.985 458.315 413.285 458.615 413.584 458.615Z" fill="white"/>
<path d="M411.785 461.313L415.684 462.212C415.984 462.212 416.583 462.212 416.583 461.613C416.583 461.313 416.583 460.713 415.984 460.713L412.385 459.814C412.085 459.814 411.485 459.814 411.485 460.414C411.185 460.713 411.485 461.013 411.785 461.313Z" fill="white"/>
<path d="M403.688 449.023C403.688 449.023 405.787 452.92 405.487 454.718C405.187 456.817 405.487 457.716 405.487 457.716L400.988 459.814L399.789 458.016L399.189 460.713C399.189 460.713 390.492 467.008 386.893 467.907C383.294 468.507 376.996 466.409 376.996 465.509C376.996 464.61 377.596 461.313 379.995 459.514C382.394 457.716 389.592 449.023 389.592 449.023H403.688Z" fill="black"/>
<path d="M389.292 451.721L392.891 452.62C393.191 452.62 393.791 452.62 393.791 452.021C393.791 451.721 393.791 451.121 393.191 451.121L389.592 450.222C389.292 450.222 388.692 450.222 388.692 450.822C388.393 451.121 388.692 451.421 389.292 451.721Z" fill="white"/>
<path d="M387.493 453.819L391.092 454.718C391.392 454.718 391.991 454.718 391.991 454.119C391.991 453.819 391.991 453.22 391.392 453.22L387.793 452.32C387.493 452.32 386.893 452.32 386.893 452.92C386.893 453.519 387.193 453.819 387.493 453.819Z" fill="white"/>
<path d="M402.788 367.191C402.788 367.191 403.688 399.564 403.688 413.353C403.388 427.141 404.587 448.723 404.587 448.723C404.587 448.723 400.089 452.021 393.491 451.421C386.893 450.822 386.893 449.922 386.893 449.922L383.894 409.756C383.894 409.756 382.095 404.66 380.895 382.478C379.695 360.297 380.895 353.702 380.895 353.702L389.292 336.916L403.688 360.297L402.788 367.191Z" fill="#0C0C0C"/>
<path d="M429.779 362.095C429.779 362.095 430.379 407.058 430.079 414.252C429.479 421.446 430.079 416.95 430.079 416.95L431.279 455.618C431.279 455.618 427.08 458.615 421.682 458.615C416.284 458.915 410.285 455.018 410.285 455.018C410.285 455.018 407.286 416.35 406.987 414.552C406.687 412.753 403.988 388.473 401.888 372.886C397.989 342.312 429.779 362.095 429.779 362.095Z" fill="#0C0C0C"/>
<path d="M404.887 369.289C409.086 370.488 413.584 370.488 417.783 369.289L433.678 365.692C433.678 365.692 435.477 365.992 434.878 359.697C433.978 353.103 430.979 314.735 433.678 298.548C436.377 282.362 434.878 271.87 434.878 271.87C434.878 271.87 420.782 262.578 417.483 263.177C414.184 263.777 400.089 259.281 400.089 259.281L386.593 261.978C386.593 261.978 383.594 262.878 380.295 267.374C376.996 271.87 373.397 286.558 373.397 286.558L377.896 306.941V325.526C377.896 325.526 378.796 342.312 377.896 349.206C376.996 356.1 376.696 359.997 377.896 361.196C379.095 362.395 387.493 365.692 389.592 361.496C391.691 357.599 391.092 340.513 391.092 340.513C391.092 340.513 393.791 364.793 399.189 366.891C400.988 368.09 403.088 368.69 404.887 369.289Z" fill="#002E5B"/>
<path d="M400.689 256.883C400.689 256.883 401.588 261.079 400.389 266.475C398.889 271.87 396.49 274.268 396.49 274.268V279.664L409.986 270.971L417.183 261.978C414.784 257.482 414.184 246.691 414.184 246.691L400.089 253.585L400.689 256.883Z" fill="#FFCCB0"/>
<path d="M405.787 257.782C405.787 257.782 400.389 260.18 398.289 257.782C395.89 255.384 392.891 248.789 393.491 241.595C394.091 234.401 397.69 229.605 397.69 229.605L419.583 235.9L415.384 248.19V251.187L405.787 257.782Z" fill="#FFCCB0"/>
<path d="M409.686 227.807C410.285 226.008 412.385 225.109 414.184 226.008C415.384 226.608 416.883 227.507 417.783 228.107C420.182 229.905 423.481 236.5 422.282 240.097C421.082 243.694 419.882 248.789 417.183 250.588C414.484 252.386 412.985 252.087 412.985 252.087L413.584 248.19C413.584 248.19 416.284 246.391 416.284 243.993C415.684 241.296 413.285 240.996 413.285 240.996C413.285 240.996 413.584 238.298 412.385 237.099C411.185 235.9 406.987 234.102 406.987 234.102L409.686 227.807Z" fill="#323643"/>
<path d="M415.084 231.404C414.184 227.807 410.585 223.311 404.587 223.011C398.889 222.711 391.691 228.706 389.592 233.202C387.493 238.598 390.492 241.895 392.291 243.394C394.091 244.893 403.388 241.895 408.186 238.898C412.985 235.6 415.084 231.404 415.084 231.404Z" fill="#323643"/>
<path d="M390.192 294.352L391.092 269.772L397.69 267.074H391.392V263.477C391.392 263.477 394.091 259.88 397.69 258.981C400.389 258.381 401.588 259.88 401.588 259.88L400.988 264.676L392.291 295.551L390.192 294.352Z" fill="#004489"/>
<path d="M397.69 303.644L413.884 271.271L416.583 260.18C416.583 259.281 417.783 258.681 418.383 259.281C421.082 261.079 424.381 264.976 424.381 267.374C424.381 270.671 422.582 276.366 422.582 276.366L415.384 271.57L420.182 279.064L400.689 303.344H397.69V303.644Z" fill="#004489"/>
<path d="M400.988 267.674L409.086 271.57L413.884 271.271L397.69 303.644L393.191 296.15L392.291 295.551L396.49 279.963L399.489 270.072L400.988 267.674Z" fill="white"/>
<path d="M408.486 270.971L405.787 275.167C405.187 276.067 404.287 276.366 403.388 276.067L402.488 275.767C401.288 275.467 400.389 274.268 400.389 273.069L400.988 267.973L408.486 270.971Z" fill="#1D1821"/>
<path d="M415.684 262.878C415.684 262.878 411.785 267.674 408.786 268.273C406.087 268.873 403.388 268.573 403.388 268.573L404.287 274.268C404.587 275.767 405.787 276.966 407.286 276.666L410.885 276.966L413.884 271.271L415.684 262.878Z" fill="white"/>
<path d="M397.989 274.568L403.388 268.573L400.988 264.676L397.989 274.568Z" fill="white"/>
<path d="M400.689 274.868L393.191 296.15L395.89 298.548L397.989 302.745L403.988 276.067L400.689 274.868Z" fill="black"/>
<path d="M391.392 300.047C391.691 300.047 391.691 300.047 391.392 300.047C391.691 300.047 391.991 300.347 391.092 298.848C390.192 297.349 390.192 297.349 390.192 297.349C390.192 297.349 385.993 297.349 385.693 297.349C385.393 297.349 383.894 295.251 383.894 295.251L390.192 294.651C390.192 294.651 392.291 294.651 393.491 295.85C394.99 297.049 398.289 301.845 398.289 301.845L400.988 303.944L399.189 305.742C396.79 303.344 393.491 301.546 391.392 300.047Z" fill="#FFCCB0"/>
<path d="M374.297 307.84L391.691 317.432C392.891 318.032 393.791 317.432 393.791 315.934L388.992 287.457C388.992 285.959 388.093 284.46 386.893 283.86L369.499 274.268C368.299 273.669 367.399 274.268 367.399 275.767L372.198 303.944C372.198 305.442 373.097 306.941 374.297 307.84Z" fill="#B8BFFE"/>
<path d="M371.598 308.74L388.992 318.332C390.192 318.931 391.092 318.332 391.092 316.833L386.593 288.357C386.593 286.858 385.693 285.359 384.494 284.76L367.099 275.167C365.9 274.568 365 275.167 365 276.666L369.499 305.143C369.499 306.641 370.398 308.14 371.598 308.74Z" fill="#D8DCFE"/>
<path d="M381.195 297.649C381.195 297.649 385.693 299.747 388.093 300.347C389.592 300.646 391.092 300.347 391.392 300.047C393.491 301.246 396.79 303.344 399.189 305.143L394.69 309.939H391.991C391.991 309.939 384.494 309.039 382.095 306.641C379.695 304.243 380.295 303.344 379.095 299.747C377.896 296.15 381.195 297.649 381.195 297.649Z" fill="#FFCCB0"/>
<path d="M418.083 317.732C418.083 312.636 423.181 285.959 424.981 280.563C427.38 273.968 430.379 269.172 433.678 270.971C436.977 273.069 439.676 276.067 439.976 284.76C440.576 293.452 429.779 332.12 426.18 335.118C422.881 338.415 420.782 337.815 417.483 335.417C414.184 332.72 393.491 310.238 393.491 310.238C393.491 310.238 394.391 307.541 397.09 305.143C399.789 303.044 400.988 301.845 400.988 301.845L418.083 317.732Z" fill="#004489"/>
<path d="M398.589 327.924H394.69C394.091 327.924 393.791 327.624 393.791 327.024C393.791 326.425 394.091 326.125 394.69 326.125H398.889C399.489 326.125 399.789 326.425 399.789 327.024C399.489 327.324 399.189 327.924 398.589 327.924Z" fill="white"/>
<path d="M398.889 336.017H394.69C394.091 336.017 393.791 335.717 393.791 335.118C393.791 334.518 394.091 334.218 394.69 334.218H398.889C399.489 334.218 399.789 334.518 399.789 335.118C399.789 335.417 399.489 336.017 398.889 336.017Z" fill="white"/>
<path d="M669.614 290.369L675.711 301.204L815 382V332.062L801.399 316.28L695.408 254.564L669.614 290.369Z" fill="#1C99F5"/>
<path d="M801.399 342.427V342.191V338.893L791.785 335.596L683.918 273.173C681.808 271.996 678.29 272.231 675.946 273.409L662.814 280.711H660V284.009C660 284.716 660.469 285.187 661.407 285.658L777.012 352.791C779.123 353.969 782.64 353.733 784.985 352.556L799.289 344.782C800.696 344.076 801.399 343.133 801.399 342.427Z" fill="#336BA4"/>
<path d="M777.247 349.493L661.641 282.36C659.531 281.182 659.766 279.062 662.345 277.884L676.415 270.111C678.759 268.698 682.277 268.698 684.387 269.876L800.461 337.009C802.572 338.187 802.337 340.307 799.758 341.484L785.454 349.258C782.874 350.671 779.357 350.671 777.247 349.493Z" fill="#6BB5FF"/>
<path d="M770.446 317.458L755.908 325.938C754.032 327.116 750.749 326.88 748.404 325.702L739.728 320.756C737.617 319.578 736.914 313.689 738.79 312.511L753.797 308.036C755.673 306.858 758.956 307.093 761.301 308.271L770.681 309.684C772.557 310.627 772.322 316.28 770.446 317.458Z" fill="#009CE2"/>
<path d="M770.446 313.218L755.908 321.698C754.032 322.876 750.749 322.64 748.404 321.462L739.728 316.516C737.617 315.338 737.383 313.218 739.259 312.276L753.797 303.796C755.673 302.618 758.956 302.853 761.301 304.031L769.977 308.978C772.088 310.156 772.322 312.276 770.446 313.218Z" fill="#00B0FF"/>
<path d="M801.399 319.813V319.578V316.28L791.785 312.982L683.918 250.56C681.808 249.382 678.29 249.618 675.946 250.796L662.814 258.098H660V261.396C660 262.102 660.469 262.573 661.407 263.044L777.012 330.178C779.123 331.356 782.64 331.12 784.985 329.942L799.289 322.169C800.696 321.698 801.399 320.756 801.399 319.813Z" fill="#336BA4"/>
<path d="M777.247 327.116L661.641 259.982C659.531 258.804 659.766 256.684 662.345 255.507L676.415 247.733C678.759 246.32 682.277 246.32 684.387 247.498L800.461 314.631C802.572 315.809 802.337 317.929 799.758 319.107L785.454 326.88C782.874 328.058 779.357 328.293 777.247 327.116Z" fill="#6BB5FF"/>
<path d="M677.352 252.209L678.994 259.982C678.994 261.867 681.808 263.516 685.325 263.516C688.843 263.516 691.657 261.867 691.657 259.982L693.298 252.209H677.352Z" fill="#1F2129"/>
<path d="M693.767 245.613H689.781C688.374 245.142 686.732 244.907 685.091 244.907C682.98 244.907 681.339 245.378 679.697 245.849H676.18V249.618C676.18 252.444 680.166 254.564 685.091 254.564C690.015 254.564 694.002 252.444 694.002 249.618L693.767 245.613Z" fill="#323643"/>
<path d="M685.091 251.031C690.012 251.031 694.002 248.816 694.002 246.084C694.002 243.352 690.012 241.138 685.091 241.138C680.169 241.138 676.18 243.352 676.18 246.084C676.18 248.816 680.169 251.031 685.091 251.031Z" fill="#27CF8C"/>
<path d="M685.091 244.907C688.843 244.907 691.891 246.084 693.298 247.969C693.767 247.262 694.002 246.791 694.002 246.084C694.002 243.258 690.015 241.138 685.091 241.138C680.166 241.138 676.18 243.258 676.18 246.084C676.18 246.791 676.415 247.498 676.884 247.969C678.29 246.084 681.339 244.907 685.091 244.907Z" fill="black"/>
<path d="M685.091 241.138C680.166 241.138 676.18 243.258 676.18 246.084C676.18 248.676 680.166 251.031 685.091 251.031C690.015 251.031 694.002 248.911 694.002 246.084C693.767 243.258 690.015 241.138 685.091 241.138ZM685.091 249.853C681.339 249.853 678.29 248.204 678.29 246.084C678.29 243.964 681.339 242.316 685.091 242.316C688.843 242.316 691.891 243.964 691.891 246.084C691.891 248.204 688.843 249.853 685.091 249.853Z" fill="black"/>
<path d="M685.56 250.796C693.201 250.796 699.395 244.573 699.395 236.898C699.395 229.222 693.201 223 685.56 223C677.919 223 671.725 229.222 671.725 236.898C671.725 244.573 677.919 250.796 685.56 250.796Z" fill="#27CF8C"/>
<path d="M706.195 281.418V251.267L724.486 240.431V271.053L706.195 281.418Z" fill="#A9B2FF"/>
<path d="M711.354 254.093L706.195 251.267V281.653L711.354 284.244V254.093Z" fill="#AEB6FE"/>
<path d="M711.354 284.244V254.093L729.644 243.258V273.88L711.354 284.244Z" fill="#B8BFFE"/>
<path d="M707.602 251.973L724.486 242.08L728.003 244.2L711.354 254.093L707.602 251.973Z" fill="white"/>
<path d="M714.402 285.893V255.742L732.693 244.907V275.529L714.402 285.893Z" fill="#87D81F"/>
<path d="M719.327 258.569L714.402 255.742V286.129L719.327 288.72V258.569Z" fill="#B3FF54"/>
<path d="M719.327 288.72V258.569L737.852 247.733V278.356L719.327 288.72Z" fill="#CEFF90"/>
<path d="M715.809 256.449L732.693 246.556L736.21 248.676L719.327 258.569L715.809 256.449Z" fill="white"/>
<path d="M722.844 290.369V260.218L741.369 249.382V280.004L722.844 290.369Z" fill="#77C0F7"/>
<path d="M728.003 263.044L722.844 260.218V290.604L728.003 293.431V263.044Z" fill="#6EB5EA"/>
<path d="M728.003 293.431V263.044L746.293 252.209V282.831L728.003 293.431Z" fill="#91D0FF"/>
<path d="M724.486 261.16L741.369 251.267L744.652 253.151L728.003 263.044L724.486 261.16Z" fill="white"/>
<path d="M759.894 312.276V282.124L778.185 271.289V301.911L759.894 312.276Z" fill="#253B68"/>
<path d="M765.053 285.187L759.894 282.124V312.511L765.053 315.338V285.187Z" fill="#0066B2"/>
<path d="M765.053 315.338V285.187L783.343 274.351V304.738L765.053 315.338Z" fill="#0F83DA"/>
<path d="M761.301 283.067L778.185 273.173L781.702 275.293L765.053 285.187L761.301 283.067Z" fill="white"/>
<path d="M593.863 425.31V505.593C593.863 506.549 593.543 507.186 592.903 507.823C592.584 508.142 592.264 508.142 591.944 508.461L587.788 511.646L585.869 506.549L518.084 468C516.485 467.045 515.206 465.133 515.206 463.222V403.009L593.863 425.31Z" fill="#336BA4"/>
<path d="M510.73 392.177V466.089C510.73 468 511.689 469.912 513.608 470.868L584.59 511.328C586.828 512.602 589.386 511.009 589.386 508.461V428.177L510.73 392.177Z" fill="#336BA4"/>
<path d="M487.708 485.523V565.806C487.708 566.762 487.389 567.399 486.749 568.036C486.429 568.355 486.11 568.355 485.79 568.673L481.633 571.859L479.715 567.08L411.929 528.213C410.331 527.257 409.052 525.346 409.052 523.434V460.354L487.708 485.523Z" fill="#336BA4"/>
<path d="M404.575 452.708V526.62C404.575 528.532 405.535 530.443 407.453 531.399L478.436 571.859C480.674 573.133 483.232 571.54 483.232 568.992V488.708L404.575 452.708Z" fill="#6BB5FF"/>
<path d="M394.024 464.814V464.496V460.673L406.814 455.576L526.397 386.443C529.275 384.85 534.071 385.168 537.268 386.761L599.298 421.805L603.135 420.85V426.266C603.135 427.221 602.496 427.859 601.217 428.496L470.762 504C467.884 505.593 463.088 505.275 459.891 503.682L396.582 468C394.983 467.045 394.344 466.089 394.024 464.814Z" fill="#336BA4"/>
<path d="M470.762 499.54L601.217 424.354C604.094 422.761 603.775 419.894 600.258 418.301L537.268 382.62C534.071 380.708 529.275 380.708 526.397 382.301L395.942 457.487C393.065 459.08 393.384 461.947 396.902 463.54L459.891 499.222C463.088 501.133 467.884 501.133 470.762 499.54Z" fill="#7CBDFF"/>
<path d="M554.534 479.151L534.071 467.045L487.708 493.806V517.7L554.534 479.151Z" fill="#56AAFF"/>
<path d="M480.674 486.797L583.311 427.859C585.23 426.903 584.91 424.991 582.672 423.717L531.513 395.044C529.275 393.77 526.397 393.77 524.479 394.726L421.842 453.664C419.923 454.62 420.243 456.531 422.481 457.806L473.959 486.797C475.558 487.753 478.756 487.753 480.674 486.797Z" fill="#41A0FF"/>
<path d="M481.314 441.558V447.929L492.504 453.983L488.348 446.018L481.314 441.558Z" fill="#D6DAEA"/>
<path d="M512.329 442.514L507.852 435.186L488.348 446.018L492.505 453.983L512.329 442.514Z" fill="white"/>
<path d="M507.852 435.186L500.498 431.044L481.314 441.558L488.348 446.018L507.852 435.186Z" fill="#D6DAEA"/>
<path d="M456.693 397.912L521.921 360.319C522.56 360 523.519 360 523.839 360C524.159 360 524.159 360.319 524.479 360.319L528.955 363.186L525.438 367.965V409.699C525.438 412.248 523.839 415.115 521.921 416.39L466.605 447.929L459.571 457.168L454.455 453.983C453.496 453.664 452.857 452.708 452.857 451.115V404.283C453.176 401.735 454.775 398.867 456.693 397.912Z" fill="#D6DAEA"/>
<path d="M461.49 457.168L526.717 419.894C528.635 418.938 530.234 415.752 530.234 413.204V366.372C530.234 363.823 528.635 362.549 526.717 363.823L461.49 401.097C459.571 402.053 457.972 405.239 457.972 407.788V454.62C458.292 456.85 459.571 458.124 461.49 457.168Z" fill="white"/>
<path d="M466.605 448.248L523.52 415.752C524.479 415.115 525.438 413.522 525.438 412.248V374.018C525.438 372.743 524.479 372.106 523.52 372.425L466.605 404.92C465.646 405.558 464.687 407.151 464.687 408.425V446.655C464.687 448.248 465.326 448.885 466.605 448.248Z" fill="#323643"/>
<path d="M475.558 466.407V463.859L495.382 454.938L524.159 438.372C525.438 437.735 527.996 437.735 529.595 438.691L544.942 447.292L549.738 447.929V450.797C549.738 451.115 549.738 451.115 549.738 451.434C549.738 451.753 549.419 452.071 548.779 452.39L501.457 479.469C500.178 480.107 497.62 480.107 496.022 479.151L476.837 468.319C475.878 467.682 475.558 467.045 475.558 466.407Z" fill="#808DA4"/>
<path d="M523.838 435.186L476.516 462.584C475.237 463.222 475.237 464.814 476.836 465.77L495.701 476.284C497.3 477.239 499.858 477.239 501.137 476.602L548.458 449.204C549.737 448.567 549.737 446.974 548.139 446.018L529.274 435.505C527.675 434.549 525.117 434.23 523.838 435.186Z" fill="#D6DAEA"/>
<path d="M520.002 452.708L522.241 453.983C522.56 454.301 523.519 454.301 523.839 453.983L526.397 452.39C527.037 452.071 527.037 451.753 526.397 451.434L524.159 450.16C523.839 449.841 522.88 449.841 522.56 450.16L520.002 451.753C519.363 452.071 519.363 452.39 520.002 452.708Z" fill="white"/>
<path d="M515.206 449.841L517.444 451.115C517.764 451.434 518.723 451.434 519.043 451.115L521.601 449.522C522.241 449.204 522.241 448.885 521.601 448.567L519.363 447.292C519.043 446.974 518.084 446.974 517.764 447.292L515.206 448.885C514.567 449.204 514.567 449.522 515.206 449.841Z" fill="white"/>
<path d="M510.41 447.292L512.648 448.567C512.968 448.885 513.927 448.885 514.247 448.567L516.805 446.974C517.444 446.655 517.444 446.337 516.805 446.018L514.567 444.744C514.247 444.425 513.288 444.425 512.968 444.744L510.41 446.337C510.09 446.655 510.09 446.974 510.41 447.292Z" fill="white"/>
<path d="M519.043 458.761L521.281 460.036C521.601 460.354 522.56 460.354 522.88 460.036L537.268 451.752C537.908 451.434 537.908 451.115 537.268 450.797L535.03 449.522C534.71 449.204 533.751 449.204 533.431 449.522L519.043 457.806C518.404 458.124 518.404 458.761 519.043 458.761Z" fill="white"/>
<path d="M525.758 449.204L527.996 450.478C528.316 450.797 529.275 450.797 529.595 450.478L532.153 448.885C532.792 448.567 532.792 448.248 532.153 447.929L529.914 446.655C529.595 446.337 528.635 446.337 528.316 446.655L525.758 448.248C525.438 448.567 525.438 448.885 525.758 449.204Z" fill="white"/>
<path d="M520.962 446.337L523.2 447.611C523.519 447.929 524.479 447.929 524.798 447.611L527.356 446.018C527.996 445.699 527.996 445.381 527.356 445.062L525.118 443.788C524.798 443.469 523.839 443.469 523.519 443.788L520.962 445.381C520.642 445.699 520.642 446.337 520.962 446.337Z" fill="white"/>
<path d="M516.485 443.788L518.723 445.062C519.043 445.381 520.002 445.381 520.322 445.062L522.88 443.469C523.519 443.151 523.519 442.832 522.88 442.514L520.642 441.239C520.322 440.921 519.363 440.921 519.043 441.239L516.485 442.832C516.165 443.151 515.846 443.469 516.485 443.788Z" fill="white"/>
<path d="M536.949 448.567L539.187 449.841C539.507 450.16 540.466 450.16 540.786 449.841L543.343 448.248C543.983 447.929 543.983 447.611 543.343 447.292L541.425 446.018C541.105 445.699 540.146 445.699 539.826 446.018L537.268 447.611C536.629 447.929 536.629 448.248 536.949 448.567Z" fill="white"/>
<path d="M532.153 445.699L534.391 446.974C534.71 447.292 535.67 447.292 535.989 446.974L538.547 445.381C539.187 445.062 539.187 444.744 538.547 444.425L536.309 443.151C535.989 442.832 535.03 442.832 534.71 443.151L532.153 444.744C531.833 445.062 531.513 445.381 532.153 445.699Z" fill="white"/>
<path d="M527.356 442.832L529.595 444.106C529.914 444.425 530.874 444.425 531.193 444.106L533.751 442.514C534.391 442.195 534.391 441.876 533.751 441.558L531.513 440.283C531.193 439.965 530.234 439.965 529.914 440.283L527.356 441.876C527.037 442.195 526.717 442.514 527.356 442.832Z" fill="white"/>
<path d="M522.56 440.283L524.798 441.558C525.118 441.876 526.077 441.876 526.397 441.558L528.955 439.965C529.595 439.646 529.595 439.328 528.955 439.009L526.717 437.735C526.397 437.416 525.438 437.416 525.118 437.735L522.56 439.328C522.241 439.646 522.241 439.965 522.56 440.283Z" fill="white"/>
<path d="M506.573 465.77L508.811 467.045C509.131 467.363 510.09 467.363 510.41 467.045L512.968 465.452C513.607 465.133 513.607 464.814 512.968 464.496L510.73 463.222C510.41 462.903 509.451 462.903 509.131 463.222L506.573 464.814C506.253 465.133 506.253 465.452 506.573 465.77Z" fill="white"/>
<path d="M501.777 462.903L504.015 464.177C504.335 464.496 505.294 464.496 505.614 464.177L508.172 462.584C508.811 462.266 508.811 461.947 508.172 461.629L505.934 460.354C505.614 460.036 504.655 460.036 504.335 460.354L501.777 461.947C501.457 462.266 501.457 462.903 501.777 462.903Z" fill="white"/>
<path d="M496.981 460.354L499.219 461.629C499.539 461.947 500.498 461.947 500.818 461.629L503.376 460.036C504.015 459.717 504.015 459.399 503.376 459.08L501.138 457.806C500.818 457.487 499.859 457.487 499.539 457.806L496.981 459.399C496.661 459.717 496.661 460.036 496.981 460.354Z" fill="white"/>
<path d="M492.185 457.487L494.423 458.761C494.743 459.08 495.702 459.08 496.022 458.761L498.58 457.168C499.219 456.85 499.219 456.531 498.58 456.213L496.341 454.938C496.022 454.62 495.062 454.62 494.743 454.938L492.185 456.531C491.865 456.85 491.865 457.487 492.185 457.487Z" fill="white"/>
<path d="M512.648 462.266L514.886 463.54C515.206 463.859 516.165 463.859 516.485 463.54L519.043 461.947C519.683 461.629 519.683 461.31 519.043 460.991L516.805 459.717C516.485 459.399 515.526 459.399 515.206 459.717L512.648 461.31C512.329 461.629 512.329 462.266 512.648 462.266Z" fill="white"/>
<path d="M502.736 456.85L509.771 460.673C510.09 460.991 511.05 460.991 511.369 460.673L513.927 459.08C514.567 458.761 514.567 458.443 513.927 458.124L506.893 454.301C506.573 453.983 505.614 453.983 505.294 454.301L502.736 455.894C502.417 456.213 502.417 456.531 502.736 456.85Z" fill="white"/>
<path d="M498.26 454.301L500.498 455.576C500.818 455.894 501.777 455.894 502.097 455.576L504.655 453.983C505.294 453.664 505.294 453.345 504.655 453.027L502.736 451.752C502.417 451.434 501.457 451.434 501.138 451.752L498.58 453.345C497.94 453.664 497.94 453.983 498.26 454.301Z" fill="white"/>
<path d="M507.852 459.717L510.09 460.991C510.41 461.31 511.369 461.31 511.689 460.991L520.642 455.894C521.281 455.576 521.281 455.257 520.642 454.938L518.404 453.664C518.084 453.345 517.125 453.345 516.805 453.664L507.852 458.761C507.532 459.08 507.213 459.399 507.852 459.717Z" fill="white"/>
<path d="M509.131 453.345L511.369 454.62C511.689 454.938 512.648 454.938 512.968 454.62L515.526 453.027C516.165 452.708 516.165 452.39 515.526 452.071L513.288 450.797C512.968 450.478 512.009 450.478 511.689 450.797L509.451 452.39C508.811 452.708 508.811 453.027 509.131 453.345Z" fill="white"/>
<path d="M504.655 450.797L506.893 452.071C507.213 452.39 508.172 452.39 508.492 452.071L511.05 450.478C511.689 450.16 511.689 449.841 511.05 449.522L508.811 448.248C508.492 447.929 507.532 447.929 507.213 448.248L504.655 449.841C504.015 449.841 504.015 450.478 504.655 450.797Z" fill="white"/>
<path d="M592.264 554.337C592.264 554.337 593.543 554.337 594.182 557.523C594.822 560.709 597.06 562.939 594.822 564.532C592.584 566.443 586.828 568.673 584.27 568.036C581.713 567.717 580.114 567.08 579.474 567.08C578.835 566.762 559.97 561.027 559.97 561.027C559.97 561.027 558.371 559.434 558.691 558.16C559.331 555.293 562.208 554.337 562.528 554.018C563.167 553.7 572.44 553.063 574.678 553.063C577.236 553.063 584.27 550.195 584.27 550.195L592.264 554.337Z" fill="#2A2A42"/>
<path d="M573.399 555.93L572.12 555.611C572.12 555.611 572.44 553.7 574.358 552.744C575.957 551.788 577.876 552.107 577.876 552.107L577.556 553.381C577.556 553.381 576.277 553.063 574.998 553.7C573.719 554.655 573.399 555.93 573.399 555.93Z" fill="#EFE2F7"/>
<path d="M570.202 555.93L568.923 555.611C568.923 555.611 569.243 553.7 571.161 552.744C572.76 551.788 574.678 552.107 574.678 552.107L574.358 553.381C574.358 553.381 573.079 553.063 571.801 553.7C570.522 554.655 570.202 555.93 570.202 555.93Z" fill="#EFE2F7"/>
<path d="M566.365 556.248L565.086 555.93C565.086 555.93 565.406 554.018 567.324 553.063C568.923 552.107 570.841 552.425 570.841 552.425L570.522 553.7C570.522 553.7 569.243 553.381 567.964 554.018C566.685 554.974 566.365 556.248 566.365 556.248Z" fill="#EFE2F7"/>
<mask id="mask2" mask-type="alpha" maskUnits="userSpaceOnUse" x="558" y="556" width="39" height="13">
<path d="M595.461 560.39C595.461 561.027 595.142 561.664 594.822 562.301C593.543 564.213 588.107 565.806 585.869 565.806C583.631 566.125 583.951 564.213 581.393 563.576C578.835 562.939 576.916 563.894 575.957 563.894C575.318 563.894 561.249 559.116 560.29 558.797C559.331 558.478 559.011 556.567 559.011 556.567C558.691 556.886 558.691 557.204 558.691 557.841C558.371 559.116 559.97 560.709 559.97 560.709C559.97 560.709 578.835 566.762 579.474 566.762C580.114 567.08 582.032 567.717 584.59 568.036C587.148 568.355 593.223 566.125 595.142 564.532C596.421 563.257 596.101 561.983 595.461 560.39Z" fill="url(#paint19_linear)"/>
</mask>
<g mask="url(#mask2)">
<path d="M595.461 560.39C595.461 561.027 595.142 561.664 594.822 562.301C593.543 564.213 588.107 565.806 585.869 565.806C583.631 566.125 583.951 564.213 581.393 563.576C578.835 562.939 576.916 563.894 575.957 563.894C575.318 563.894 561.249 559.116 560.29 558.797C559.331 558.478 559.011 556.567 559.011 556.567C558.691 556.886 558.691 557.204 558.691 557.841C558.371 559.116 559.97 560.709 559.97 560.709C559.97 560.709 578.835 566.762 579.474 566.762C580.114 567.08 582.032 567.717 584.59 568.036C587.148 568.355 593.223 566.125 595.142 564.532C596.421 563.257 596.101 561.983 595.461 560.39Z" fill="url(#paint20_linear)"/>
</g>
<mask id="mask3" mask-type="alpha" maskUnits="userSpaceOnUse" x="582" y="555" width="12" height="7">
<path d="M582.672 558.16C582.672 558.16 585.23 561.664 588.427 561.027C591.625 560.39 592.903 559.434 592.903 559.434C592.903 559.434 593.863 558.478 592.903 555.93C591.944 553.063 582.672 558.16 582.672 558.16Z" fill="url(#paint21_linear)"/>
</mask>
<g mask="url(#mask3)">
<path d="M582.672 558.16C582.672 558.16 585.23 561.664 588.427 561.027C591.625 560.39 592.903 559.434 592.903 559.434C592.903 559.434 593.863 558.478 592.903 555.93C591.944 553.063 582.672 558.16 582.672 558.16Z" fill="url(#paint22_linear)"/>
</g>
<path d="M589.067 546.054L590.346 552.744C590.346 552.744 587.788 554.974 584.91 555.293C582.352 555.611 580.434 553.381 580.434 553.381L578.835 545.735L589.067 546.054Z" fill="#FFCCB0"/>
<path d="M575.637 504C575.637 504 579.155 506.231 580.114 511.328C580.753 514.195 584.91 527.576 584.91 527.576L589.386 546.054C589.706 548.602 587.788 550.832 585.23 551.151H584.27C582.032 551.47 579.794 550.195 579.155 547.965L560.929 509.098C560.929 509.098 561.569 501.452 567.004 496.354C572.76 491.576 575.637 504 575.637 504Z" fill="#323643"/>
<path d="M550.058 554.337C549.419 556.248 550.058 558.797 551.337 560.071C552.616 561.346 553.895 560.709 554.534 558.797C555.174 556.886 554.534 554.337 553.255 553.063C551.976 551.788 550.378 552.425 550.058 554.337Z" fill="#284570"/>
<path d="M547.82 555.293C547.18 557.204 547.82 559.753 549.099 561.027C550.378 562.302 551.657 561.664 552.296 559.753C552.936 557.841 552.296 555.293 551.017 554.018C549.738 552.744 548.459 553.381 547.82 555.293Z" fill="#4782C9"/>
<path d="M548.779 556.248C548.459 557.523 548.779 558.797 549.419 559.753C550.058 560.39 551.017 560.071 551.337 559.116C551.657 557.841 551.337 556.567 550.698 555.611C550.058 554.655 549.099 554.974 548.779 556.248Z" fill="#030B35"/>
<path d="M600.577 553.7C599.938 555.611 600.577 558.16 601.856 559.434C603.135 560.709 604.414 560.071 605.054 558.16C605.693 556.248 605.054 553.7 603.775 552.425C602.815 551.151 601.217 551.788 600.577 553.7Z" fill="#284570"/>
<path d="M598.659 554.655C598.019 556.567 598.659 559.116 599.938 560.39C601.217 561.664 602.496 561.027 603.135 559.116C603.775 557.204 603.135 554.655 601.856 553.381C600.577 552.425 599.298 552.744 598.659 554.655Z" fill="#4782C9"/>
<path d="M599.618 555.611C599.298 556.886 599.618 558.16 600.258 559.116C600.897 559.753 601.856 559.434 602.176 558.479C602.496 557.204 602.176 555.93 601.536 554.974C600.897 554.337 599.938 554.656 599.618 555.611Z" fill="#030B35"/>
<path d="M550.378 583.01C549.738 584.921 550.378 587.47 551.657 588.744C552.936 590.018 554.215 589.381 554.854 587.47C555.494 585.558 554.854 583.01 553.575 581.735C552.296 580.461 551.017 581.098 550.378 583.01Z" fill="#284570"/>
<path d="M548.14 583.965C547.5 585.877 548.14 588.425 549.419 589.7C550.697 590.974 551.976 590.337 552.616 588.425C553.255 586.514 552.616 583.965 551.337 582.691C550.378 581.417 548.779 582.054 548.14 583.965Z" fill="#4782C9"/>
<path d="M549.099 584.921C548.779 586.195 549.099 587.47 549.738 588.425C550.378 589.063 551.337 588.744 551.657 587.788C551.976 586.514 551.657 585.24 551.017 584.284C550.378 583.647 549.419 583.965 549.099 584.921Z" fill="#030B35"/>
<path d="M600.258 583.647C599.618 585.558 600.258 588.107 601.537 589.381C602.815 590.656 604.094 590.018 604.734 588.107C605.373 586.195 604.734 583.647 603.455 582.372C602.176 581.098 600.897 581.735 600.258 583.647Z" fill="#284570"/>
<path d="M598.339 584.602C597.7 586.514 598.339 589.063 599.618 590.337C600.897 591.611 602.176 590.974 602.815 589.063C603.455 587.151 602.815 584.602 601.537 583.328C600.258 582.054 598.979 582.691 598.339 584.602Z" fill="#4782C9"/>
<path d="M599.298 585.558C598.979 586.833 599.298 588.107 599.938 589.063C600.577 589.7 601.537 589.381 601.856 588.425C602.176 587.151 601.856 585.877 601.217 584.921C600.258 583.965 599.618 584.284 599.298 585.558Z" fill="#030B35"/>
<path d="M573.719 561.027L549.738 582.054C548.459 583.01 547.18 587.47 553.575 584.284L600.897 557.204C607.931 552.744 602.815 551.788 600.258 552.425L576.597 560.709C575.957 560.709 574.358 560.39 573.719 561.027Z" fill="#323643"/>
<path d="M579.474 561.027L603.455 582.054C604.734 583.01 606.013 587.47 599.618 584.284L552.296 557.204C545.262 552.744 550.378 551.788 552.936 552.425L576.597 560.709C577.236 560.709 578.835 560.39 579.474 561.027Z" fill="#323643"/>
<path d="M568.923 564.85C568.923 567.717 572.76 570.266 577.236 570.266C581.712 570.266 585.549 567.717 585.549 564.85C585.549 561.983 581.712 556.886 577.236 556.886C572.76 556.886 568.923 561.983 568.923 564.85Z" fill="#0066B2"/>
<path d="M577.236 564.85C580.591 564.85 583.311 563.139 583.311 561.027C583.311 558.916 580.591 557.204 577.236 557.204C573.881 557.204 571.161 558.916 571.161 561.027C571.161 563.139 573.881 564.85 577.236 564.85Z" fill="#41A0FF"/>
<path d="M577.236 561.027C579.155 561.027 581.073 559.434 581.073 557.523V522.16C581.073 520.248 579.474 518.655 577.236 518.655C575.318 518.655 573.399 520.248 573.399 522.16V557.523C573.719 559.434 575.318 561.027 577.236 561.027Z" fill="#323643"/>
<path d="M545.262 511.646L548.779 511.328C549.419 511.009 549.738 510.691 550.378 510.372L559.011 505.593C566.685 501.452 579.474 502.408 587.788 507.505L599.298 514.514L608.251 517.381V523.116C608.251 524.708 607.292 526.301 605.373 527.257L586.189 538.408C581.712 540.638 574.039 540.319 569.243 537.133L552.296 526.939C547.82 524.39 545.582 521.204 545.582 518.018V511.646H545.262Z" fill="#323643"/>
<path d="M586.188 532.673L605.692 522.16C610.169 519.93 609.849 515.47 604.733 512.284L588.106 502.089C579.793 496.992 566.684 496.036 559.33 500.177L550.697 504.956C543.023 509.098 543.982 516.425 552.295 521.523L569.242 531.717C574.038 534.585 581.712 535.222 586.188 532.673Z" fill="#91D0FF"/>
<path d="M546.541 572.496C546.541 572.496 547.82 572.496 548.459 575.364C549.099 578.231 551.017 580.461 549.099 582.054C547.18 583.965 541.425 585.877 538.867 585.558C536.309 585.24 534.71 584.602 534.071 584.602C533.431 584.284 515.526 578.868 515.526 578.868C515.526 578.868 513.927 577.275 514.247 576.319C514.886 573.452 517.444 572.815 518.084 572.496C518.723 572.178 527.356 571.54 529.914 571.54C532.152 571.54 538.867 568.673 538.867 568.673L546.541 572.496Z" fill="#323643"/>
<path d="M528.316 574.408L527.037 574.089C527.037 574.089 527.356 572.178 528.955 571.222C530.554 570.266 532.472 570.585 532.472 570.585L532.152 571.859C532.152 571.859 530.873 571.54 529.914 572.178C528.635 573.133 528.316 574.408 528.316 574.408Z" fill="white"/>
<path d="M525.118 574.089L523.839 573.771C523.839 573.771 524.159 571.859 525.758 570.903C527.356 569.948 529.275 570.266 529.275 570.266L528.955 571.541C528.955 571.541 527.676 571.222 526.717 571.859C525.438 572.815 525.118 574.089 525.118 574.089Z" fill="white"/>
<path d="M521.601 574.408L520.322 574.089C520.322 574.089 520.642 572.178 522.24 571.222C523.839 570.266 525.758 570.585 525.758 570.585L525.118 572.178C525.118 572.178 523.839 571.859 522.88 572.496C521.921 573.133 521.601 574.408 521.601 574.408Z" fill="white"/>
<mask id="mask4" mask-type="alpha" maskUnits="userSpaceOnUse" x="514" y="575" width="36" height="11">
<path d="M549.419 578.549C549.419 579.187 549.099 579.824 548.779 580.461C547.5 582.372 542.384 583.647 540.146 583.965C537.908 584.284 538.228 582.372 535.989 581.735C533.751 581.098 531.513 582.054 530.874 582.054C530.234 582.054 516.805 577.594 515.846 576.956C514.886 576.638 514.567 575.045 514.567 575.045C514.247 575.364 514.247 575.682 514.247 576.319C513.927 577.594 515.526 578.868 515.526 578.868C515.526 578.868 533.431 584.602 534.071 584.602C534.71 584.921 536.309 585.24 538.867 585.558C541.425 585.877 547.18 583.965 549.099 582.054C550.378 581.098 550.058 580.142 549.419 578.549Z" fill="url(#paint23_linear)"/>
</mask>
<g mask="url(#mask4)">
<path d="M549.419 578.549C549.419 579.187 549.099 579.824 548.779 580.461C547.5 582.372 542.384 583.647 540.146 583.965C537.908 584.284 538.228 582.372 535.989 581.735C533.751 581.098 531.513 582.054 530.874 582.054C530.234 582.054 516.805 577.594 515.846 576.956C514.886 576.638 514.567 575.045 514.567 575.045C514.247 575.364 514.247 575.682 514.247 576.319C513.927 577.594 515.526 578.868 515.526 578.868C515.526 578.868 533.431 584.602 534.071 584.602C534.71 584.921 536.309 585.24 538.867 585.558C541.425 585.877 547.18 583.965 549.099 582.054C550.378 581.098 550.058 580.142 549.419 578.549Z" fill="white"/>
</g>
<mask id="mask5" mask-type="alpha" maskUnits="userSpaceOnUse" x="536" y="573" width="12" height="7">
<path d="M536.949 576.319C536.949 576.319 539.507 579.824 542.704 579.187C545.901 578.549 546.861 577.594 546.861 577.594C546.861 577.594 547.82 576.638 546.861 574.089C545.901 571.541 536.949 576.319 536.949 576.319Z" fill="url(#paint24_linear)"/>
</mask>
<g mask="url(#mask5)">
<path d="M536.949 576.319C536.949 576.319 539.507 579.824 542.704 579.187C545.901 578.549 546.861 577.594 546.861 577.594C546.861 577.594 547.82 576.638 546.861 574.089C545.901 571.541 536.949 576.319 536.949 576.319Z" fill="white"/>
</g>
<path d="M545.262 564.532V572.178C545.262 572.178 541.745 574.089 538.867 573.771C535.989 573.452 534.391 570.903 534.391 570.903V562.302L545.262 564.532Z" fill="#FFCCB0"/>
<path d="M562.528 433.593C563.487 431.682 564.446 430.089 562.528 429.452C559.97 428.496 555.174 426.584 554.534 425.31C553.575 423.398 552.616 420.85 551.977 419.575C551.657 418.938 551.337 418.62 550.698 417.982L534.71 406.195C534.71 406.195 533.112 415.434 534.71 421.168C535.67 424.354 536.629 426.584 537.588 427.859C538.228 428.814 539.507 429.452 540.786 429.452H541.745C543.983 429.452 545.582 431.682 545.262 433.912C544.942 435.186 544.303 437.098 543.983 438.691C543.343 441.239 545.262 443.469 547.82 443.469L556.453 442.514C557.732 442.514 559.011 441.558 559.331 440.283L562.528 433.593Z" fill="#FFCCB0"/>
<path d="M589.386 487.115C591.944 487.434 593.863 489.346 593.863 491.894C593.863 496.992 593.863 504.956 591.625 508.461C588.427 514.195 584.59 517.7 574.358 520.885C564.127 524.071 544.622 522.797 541.425 523.116H542.384C542.384 523.116 544.303 526.939 544.303 536.178C544.303 545.417 544.622 553.381 545.262 559.753L545.582 562.939C545.901 564.85 544.942 566.762 543.343 567.717L541.105 568.673C539.507 569.948 537.268 569.629 535.35 568.673C534.391 568.036 533.431 566.762 533.431 565.487L522.56 527.894C522.56 527.576 522.56 527.257 522.56 526.939C519.043 519.611 522.56 512.284 526.397 509.416C530.554 506.549 553.255 494.443 555.494 493.169C555.494 493.169 555.813 493.169 555.813 492.85C557.732 492.213 572.76 485.523 574.039 485.523C574.678 485.523 583.631 486.478 589.386 487.115Z" fill="#323643"/>
<path d="M509.131 468.319C509.131 468.319 503.056 467.045 500.818 467.045C498.58 467.045 491.865 470.549 494.103 472.779C495.382 474.053 496.341 474.372 496.341 474.372L499.219 473.098C499.219 473.098 499.219 473.098 502.097 475.009C504.974 476.921 507.852 475.965 507.852 475.965L512.648 470.549L509.131 468.319Z" fill="#FFCCB0"/>
<path d="M578.835 437.735C572.44 430.726 566.685 430.089 563.487 429.77C560.29 429.452 563.487 432 559.65 434.23C554.534 437.098 550.378 435.823 547.82 435.505C545.262 435.186 539.826 436.779 536.949 442.514C534.071 448.248 529.275 464.814 528.635 467.682C527.676 470.23 527.676 472.461 527.676 472.461C527.676 472.461 510.73 468.956 508.172 467.682C505.614 466.726 504.655 475.328 505.294 478.195C505.934 481.062 528.955 489.027 532.152 488.071C535.35 487.115 541.745 473.416 543.663 466.726C544.303 463.859 543.343 469.912 544.942 472.142C546.221 474.372 550.058 487.115 550.058 491.894C550.058 496.673 542.064 500.496 552.936 504.956C567.644 511.009 584.91 513.558 594.182 503.045C596.101 500.815 591.624 463.859 586.828 451.753C581.713 439.328 578.835 437.735 578.835 437.735Z" fill="#2836B3"/>
<path d="M554.215 424.673C554.215 424.673 561.889 423.398 563.167 417.027C564.446 410.655 562.528 401.416 556.133 396.956C549.738 392.496 539.187 392.814 535.67 396.956C532.153 401.416 531.833 403.646 532.153 406.832C532.472 412.567 534.391 409.062 534.391 409.062L535.989 408.106C535.989 408.106 535.35 406.195 537.588 412.885C539.826 419.575 551.017 424.673 551.017 424.673H554.215Z" fill="#323643"/>
<path d="M597.7 533.629C599.298 533.629 600.897 533.31 602.176 532.673C605.373 531.08 606.333 527.894 606.333 527.576V526.939V512.602C606.333 511.328 605.373 510.054 603.775 510.054C602.496 510.054 601.217 511.009 601.217 512.602V526.62C600.897 526.939 600.577 527.894 599.618 528.532C598.659 528.85 597.7 528.85 596.421 528.85C595.142 528.532 593.863 529.169 593.543 530.443C592.903 532.036 593.863 533.31 595.461 533.629C596.101 533.629 597.06 533.629 597.7 533.629Z" fill="#323643"/>
<path d="M592.264 452.071L601.856 446.655C605.373 444.744 608.251 444.425 610.809 445.699H611.129C611.129 445.699 611.129 445.699 611.448 445.699L616.884 448.248L615.605 450.797C616.245 452.708 616.564 454.938 616.564 457.487V487.753C616.564 494.124 612.727 501.452 607.931 504.319L588.427 515.47L586.509 519.93L580.753 517.062C578.835 516.107 577.556 513.558 577.556 510.054V479.788C577.236 469.275 583.951 456.531 592.264 452.071Z" fill="#91D0FF"/>
<path d="M591.624 519.611L613.367 507.186C618.163 504.319 622 496.992 622 490.62V460.354C622 449.522 615.285 444.425 606.972 449.204L597.38 454.62C589.067 459.399 582.672 471.823 582.672 482.655V512.921C582.991 519.611 586.828 522.478 591.624 519.611Z" fill="#323643"/>
<path d="M491.226 466.726L493.464 468C493.783 468.319 494.743 468.319 495.062 468L497.62 466.407C498.26 466.089 498.26 465.77 497.62 465.452L495.382 464.177C495.062 463.859 494.103 463.859 493.784 464.177L491.226 465.77C490.586 466.089 490.586 466.407 491.226 466.726Z" fill="#FFFFF8"/>
<path d="M486.429 464.177L488.668 465.452C488.987 465.77 489.947 465.77 490.266 465.452L492.824 463.859C493.464 463.54 493.464 463.222 492.824 462.903L490.586 461.629C490.266 461.31 489.307 461.31 488.987 461.629L486.429 463.222C486.11 463.54 486.11 463.859 486.429 464.177Z" fill="#FFFFF8"/>
<path d="M480.994 467.045L483.232 468.319C483.552 468.638 484.511 468.638 484.831 468.319L487.389 466.726C488.028 466.407 488.028 466.089 487.389 465.77L485.15 464.496C484.831 464.177 483.871 464.177 483.552 464.496L480.994 466.089C480.674 466.407 480.354 466.726 480.994 467.045Z" fill="#FFFFF8"/>
<path d="M474.919 467.682L472.041 482.018C472.041 484.567 468.844 486.478 464.687 486.478C460.53 486.478 457.333 484.567 457.333 482.018L454.455 467.682H474.919Z" fill="white"/>
<path d="M454.135 468C454.455 470.868 459.251 473.098 464.367 473.098C469.483 473.098 474.279 470.868 474.599 468C475.238 464.815 470.442 461.629 464.367 461.629C458.292 461.947 453.816 464.815 454.135 468Z" fill="white"/>
<path d="M456.374 468C456.693 469.912 460.211 471.505 464.367 471.505C468.524 471.505 472.041 469.912 472.361 468C472.681 465.77 469.163 463.859 464.367 463.859C459.571 463.54 456.054 465.77 456.374 468Z" fill="#D6DAEA"/>
<path d="M471.402 469.593C470.123 468.319 467.565 467.682 464.367 467.682C461.17 467.682 458.612 468.319 457.333 469.593C458.612 470.868 461.49 471.505 464.367 471.505C467.565 471.505 470.123 470.868 471.402 469.593Z" fill="#323643"/>
<path d="M578.739 442C581.72 442 578.739 431.041 576.751 429.049C572.114 424.4 566.152 422.075 565.49 416.098C564.827 409.456 563.171 400.49 556.878 396.173C550.253 391.523 537.004 392.188 534.354 396.837C531.373 401.486 530.379 405.471 531.373 407.795C533.36 413.441 533.36 413.441 533.36 413.441L536.341 407.463C536.341 407.463 535.679 405.471 537.997 412.445C538.991 415.765 538.329 425.064 541.641 429.713C546.941 437.351 550.584 441.004 563.833 438.015L578.739 442Z" fill="black"/>
<defs>
<filter id="filter0_d" x="114" y="0.5" width="346" height="452.5" filterUnits="userSpaceOnUse" color-interpolation-filters="sRGB">
<feFlood flood-opacity="0" result="BackgroundImageFix"/>
<feColorMatrix in="SourceAlpha" type="matrix" values="0 0 0 0 0 0 0 0 0 0 0 0 0 0 0 0 0 0 127 0"/>
<feOffset dy="4"/>
<feGaussianBlur stdDeviation="15"/>
<feColorMatrix type="matrix" values="0 0 0 0 0.199024 0 0 0 0 0.420473 0 0 0 0 0.641921 0 0 0 0.5 0"/>
<feBlend mode="normal" in2="BackgroundImageFix" result="effect1_dropShadow"/>
<feBlend mode="normal" in="SourceGraphic" in2="effect1_dropShadow" result="shape"/>
</filter>
<filter id="filter1_d" x="365" y="98.9818" width="76" height="122.904" filterUnits="userSpaceOnUse" color-interpolation-filters="sRGB">
<feFlood flood-opacity="0" result="BackgroundImageFix"/>
<feColorMatrix in="SourceAlpha" type="matrix" values="0 0 0 0 0 0 0 0 0 0 0 0 0 0 0 0 0 0 127 0"/>
<feOffset dy="1"/>
<feGaussianBlur stdDeviation="2"/>
<feColorMatrix type="matrix" values="0 0 0 0 0 0 0 0 0 0 0 0 0 0 0 0 0 0 0.04 0"/>
<feBlend mode="normal" in2="BackgroundImageFix" result="effect1_dropShadow"/>
<feBlend mode="normal" in="SourceGraphic" in2="effect1_dropShadow" result="shape"/>
</filter>
<filter id="filter2_d" x="208" y="140.809" width="161" height="251.367" filterUnits="userSpaceOnUse" color-interpolation-filters="sRGB">
<feFlood flood-opacity="0" result="BackgroundImageFix"/>
<feColorMatrix in="SourceAlpha" type="matrix" values="0 0 0 0 0 0 0 0 0 0 0 0 0 0 0 0 0 0 127 0"/>
<feOffset dy="1"/>
<feGaussianBlur stdDeviation="2"/>
<feColorMatrix type="matrix" values="0 0 0 0 0 0 0 0 0 0 0 0 0 0 0 0 0 0 0.04 0"/>
<feBlend mode="normal" in2="BackgroundImageFix" result="effect1_dropShadow"/>
<feBlend mode="normal" in="SourceGraphic" in2="effect1_dropShadow" result="shape"/>
</filter>
<filter id="filter3_d" x="208" y="48" width="232.436" height="182.176" filterUnits="userSpaceOnUse" color-interpolation-filters="sRGB">
<feFlood flood-opacity="0" result="BackgroundImageFix"/>
<feColorMatrix in="SourceAlpha" type="matrix" values="0 0 0 0 0 0 0 0 0 0 0 0 0 0 0 0 0 0 127 0"/>
<feOffset dy="1"/>
<feGaussianBlur stdDeviation="2"/>
<feColorMatrix type="matrix" values="0 0 0 0 0 0 0 0 0 0 0 0 0 0 0 0 0 0 0.04 0"/>
<feBlend mode="normal" in2="BackgroundImageFix" result="effect1_dropShadow"/>
<feBlend mode="normal" in="SourceGraphic" in2="effect1_dropShadow" result="shape"/>
</filter>
<filter id="filter4_d" x="365" y="179" width="76" height="122.904" filterUnits="userSpaceOnUse" color-interpolation-filters="sRGB">
<feFlood flood-opacity="0" result="BackgroundImageFix"/>
<feColorMatrix in="SourceAlpha" type="matrix" values="0 0 0 0 0 0 0 0 0 0 0 0 0 0 0 0 0 0 127 0"/>
<feOffset dy="1"/>
<feGaussianBlur stdDeviation="2"/>
<feColorMatrix type="matrix" values="0 0 0 0 0 0 0 0 0 0 0 0 0 0 0 0 0 0 0.04 0"/>
<feBlend mode="normal" in2="BackgroundImageFix" result="effect1_dropShadow"/>
<feBlend mode="normal" in="SourceGraphic" in2="effect1_dropShadow" result="shape"/>
</filter>
<linearGradient id="paint0_linear" x1="96.972" y1="591.988" x2="861.587" y2="129.004" gradientUnits="userSpaceOnUse">
<stop stop-color="white" stop-opacity="0"/>
<stop offset="0.313905" stop-color="white"/>
<stop offset="0.703486" stop-color="white"/>
<stop offset="1" stop-color="white" stop-opacity="0"/>
</linearGradient>
<linearGradient id="paint1_linear" x1="110.231" y1="679.495" x2="1028.05" y2="137.378" gradientUnits="userSpaceOnUse">
<stop stop-color="white" stop-opacity="0"/>
<stop offset="0.415725" stop-color="white"/>
<stop offset="0.964454" stop-color="white" stop-opacity="0"/>
</linearGradient>
<linearGradient id="paint2_linear" x1="124.566" y1="775.85" x2="1003.93" y2="260.459" gradientUnits="userSpaceOnUse">
<stop offset="0.049616" stop-color="white" stop-opacity="0"/>
<stop offset="0.644692" stop-color="white"/>
<stop offset="1" stop-color="white" stop-opacity="0"/>
</linearGradient>
<linearGradient id="paint3_linear" x1="292.003" y1="789.005" x2="994.249" y2="376.099" gradientUnits="userSpaceOnUse">
<stop stop-color="white" stop-opacity="0"/>
<stop offset="0.644692" stop-color="white"/>
<stop offset="1" stop-color="white" stop-opacity="0"/>
</linearGradient>
<linearGradient id="paint4_linear" x1="388.566" y1="845.85" x2="1267.93" y2="330.459" gradientUnits="userSpaceOnUse">
<stop offset="0.019904" stop-color="white" stop-opacity="0"/>
<stop offset="0.451301" stop-color="white"/>
<stop offset="0.68187" stop-color="white" stop-opacity="0"/>
</linearGradient>
<linearGradient id="paint5_linear" x1="729.105" y1="809.47" x2="65.4883" y2="420.885" gradientUnits="userSpaceOnUse">
<stop stop-color="white" stop-opacity="0"/>
<stop offset="0.644692" stop-color="white"/>
<stop offset="1" stop-color="white" stop-opacity="0"/>
</linearGradient>
<linearGradient id="paint6_linear" x1="928" y1="816.999" x2="36.9932" y2="322.012" gradientUnits="userSpaceOnUse">
<stop offset="0.086812" stop-color="white" stop-opacity="0"/>
<stop offset="0.644692" stop-color="white"/>
<stop offset="1" stop-color="white" stop-opacity="0"/>
</linearGradient>
<linearGradient id="paint7_linear" x1="969.993" y1="754.012" x2="35.9866" y2="226.023" gradientUnits="userSpaceOnUse">
<stop offset="0.0446968" stop-color="white" stop-opacity="0"/>
<stop offset="0.644692" stop-color="white"/>
<stop offset="1" stop-color="white" stop-opacity="0"/>
</linearGradient>
<linearGradient id="paint8_linear" x1="961.871" y1="660.208" x2="12.0005" y2="122.999" gradientUnits="userSpaceOnUse">
<stop stop-color="white" stop-opacity="0"/>
<stop offset="0.48908" stop-color="white"/>
<stop offset="0.997117" stop-color="white" stop-opacity="0"/>
</linearGradient>
<linearGradient id="paint9_linear" x1="1025.87" y1="602.208" x2="76.0005" y2="64.9987" gradientUnits="userSpaceOnUse">
<stop stop-color="white" stop-opacity="0"/>
<stop offset="0.482765" stop-color="white"/>
<stop offset="1" stop-color="white" stop-opacity="0"/>
</linearGradient>
<linearGradient id="paint10_linear" x1="931.886" y1="443.805" x2="175.032" y2="29.791" gradientUnits="userSpaceOnUse">
<stop stop-color="white" stop-opacity="0"/>
<stop offset="0.644692" stop-color="white"/>
<stop offset="0.948795" stop-color="white" stop-opacity="0"/>
</linearGradient>
<linearGradient id="paint11_linear" x1="571.379" y1="132" x2="571.379" y2="336" gradientUnits="userSpaceOnUse">
<stop stop-color="#F9FBFF"/>
<stop offset="1" stop-color="#BFD9F2"/>
</linearGradient>
<linearGradient id="paint12_linear" x1="618.739" y1="200.442" x2="618.739" y2="262.588" gradientUnits="userSpaceOnUse">
<stop stop-color="#324558"/>
<stop offset="1" stop-color="#3C6187"/>
</linearGradient>
<linearGradient id="paint13_linear" x1="608" y1="233.882" x2="625.99" y2="245.406" gradientUnits="userSpaceOnUse">
<stop stop-color="#121314"/>
<stop offset="1" stop-color="#263341"/>
</linearGradient>
<linearGradient id="paint14_linear" x1="473.931" y1="74.7645" x2="473.931" y2="84.3866" gradientUnits="userSpaceOnUse">
<stop stop-color="#3F4047"/>
<stop offset="1" stop-color="#525259"/>
</linearGradient>
<linearGradient id="paint15_linear" x1="612.827" y1="404.36" x2="522.814" y2="458.495" gradientUnits="userSpaceOnUse">
<stop/>
<stop offset="1" stop-color="white"/>
</linearGradient>
<linearGradient id="paint16_linear" x1="612.827" y1="404.36" x2="522.814" y2="458.495" gradientUnits="userSpaceOnUse">
<stop stop-color="#FFD9EA"/>
<stop offset="1" stop-color="white"/>
</linearGradient>
<linearGradient id="paint17_linear" x1="586.264" y1="395.439" x2="496.251" y2="449.574" gradientUnits="userSpaceOnUse">
<stop/>
<stop offset="1" stop-color="white"/>
</linearGradient>
<linearGradient id="paint18_linear" x1="586.264" y1="395.439" x2="496.251" y2="449.574" gradientUnits="userSpaceOnUse">
<stop stop-color="#FFD9EA"/>
<stop offset="1" stop-color="white"/>
</linearGradient>
<linearGradient id="paint19_linear" x1="531.062" y1="546.082" x2="648.25" y2="599.996" gradientUnits="userSpaceOnUse">
<stop/>
<stop offset="1" stop-color="white"/>
</linearGradient>
<linearGradient id="paint20_linear" x1="531.062" y1="546.082" x2="648.25" y2="599.996" gradientUnits="userSpaceOnUse">
<stop stop-color="#FFD9EA"/>
<stop offset="1" stop-color="white"/>
</linearGradient>
<linearGradient id="paint21_linear" x1="575.676" y1="553.877" x2="607.676" y2="568.599" gradientUnits="userSpaceOnUse">
<stop/>
<stop offset="1" stop-color="white"/>
</linearGradient>
<linearGradient id="paint22_linear" x1="575.676" y1="553.877" x2="607.676" y2="568.599" gradientUnits="userSpaceOnUse">
<stop stop-color="#FFD9EA"/>
<stop offset="1" stop-color="white"/>
</linearGradient>
<linearGradient id="paint23_linear" x1="487.664" y1="564.741" x2="599.887" y2="616.371" gradientUnits="userSpaceOnUse">
<stop/>
<stop offset="1" stop-color="white"/>
</linearGradient>
<linearGradient id="paint24_linear" x1="530.387" y1="572.206" x2="561.032" y2="586.304" gradientUnits="userSpaceOnUse">
<stop/>
<stop offset="1" stop-color="white"/>
</linearGradient>
</defs>
</svg>